<?xml version="1.0" encoding="utf-8"?>
<!-- Generator: Adobe Illustrator 24.0.1, SVG Export Plug-In . SVG Version: 6.00 Build 0)  -->
<svg version="1.1" id="Layer_1" xmlns="http://www.w3.org/2000/svg" xmlns:xlink="http://www.w3.org/1999/xlink" x="0px" y="0px"
	 viewBox="0 0 3525.6 1821.9" style="enable-background:new 0 0 3525.6 1821.9;" xml:space="preserve">
<style type="text/css">
	.st0{fill:#E46F26;}
</style>
<path class="st0" d="M3525.6,322.4L2886.6,0h-0.1c-46.7,6.1-99.8,14.4-143,21.9l434.7,192.6c-12.3,5.5-17.2,7.2-27.7,11.8
	L2687.6,32.2c-88.4,16.6-177.4,37-252.6,57.4L2850.7,227c-19.3,9.1-24.5,11.6-44.4,21.1l-449.4-137.6
	c-133.6,38.1-270.5,83.9-452.1,159.8h0.1l845.9,151.1c-23.8,12.8-38.2,21.2-62.1,34.5l-900.3-134.8
	c-214.6,93.4-463.4,236.8-661.6,369.1h0.1l886,0.2h0.1c-40.5,26.2-74.8,48.1-123.1,82.7l0.8-0.8l-927,31.8l0.2,0.1
	c-170.3,122.9-344,270.1-444.9,361c-97.9,88.3-386.8,387.6-519,656.7l1081.1-287.5l0.1,0.1c-48.6,73.3-88.1,149.6-111.5,217.6
	L2143.8,1372c-12.3-279.9,253.6-529.9,434.3-681.6h149c-231.1,200-337.9,424.4-307.8,593.3l367.5-119
	C2696.5,932.7,2938.4,520,3525.6,322.4 M3281.8,281.5l71.8,30.2c-120.3,49.2-228.1,102.8-323.8,159.1l-98.7-16.5
	C3019.2,401.3,3148.8,337.1,3281.8,281.5"/>
</svg>
