<svg id="Layer_1" xmlns="http://www.w3.org/2000/svg" viewBox="0 0 3268.8 2339.8" width="6868.8" height="2339.8">
    <style>.st0{fill:#e46f26}</style>
    <path class="st0"
          d="M3525.5 840.4l-639-322.4h-.1c-46.7 6.1-99.8 14.4-143 21.9l434.7 192.6c-12.3 5.5-17.2 7.2-27.7 11.8l-462.9-194.1c-88.4 16.6-177.4 37-252.6 57.4L2850.6 745c-19.3 9.1-24.5 11.6-44.4 21.1l-449.4-137.6c-133.6 38.1-270.5 83.9-452.1 159.8h.1l845.9 151.1c-23.8 12.8-38.2 21.2-62.1 34.5l-900.3-134.8c-214.6 93.4-463.4 236.8-661.6 369.1h.1l886 .2h.1c-40.5 26.2-74.8 48.1-123.1 82.7l.8-.8-927 31.8.2.1c-170.3 122.9-344 270.1-444.9 361-97.9 88.3-386.8 387.6-519 656.7L1081 2052.4l.1.1c-48.6 73.3-88.1 149.6-111.5 217.6L2143.7 1890c-12.3-279.9 253.6-529.9 434.3-681.6h149c-231.1 200-337.9 424.4-307.8 593.3l367.5-119c-90.3-232 151.6-644.7 738.8-842.3m-243.8-40.9l71.8 30.2c-120.3 49.2-228.1 102.8-323.8 159.1l-98.7-16.5c88.1-53 217.7-117.2 350.7-172.8"/>
</svg>